<svg xmlns="http://www.w3.org/2000/svg" viewBox="0 0 44 44"><defs><style>.a{fill:#00a4de;}.b{fill:#fff;}</style></defs><g transform="translate(-944 -1162)"><rect class="a" width="44" height="44" rx="2.4" transform="translate(944 1162)"/><path class="b" d="M128.085,147.11a4.733,4.733,0,0,0-3.326-1.5,5.377,5.377,0,0,0,2.763-1.522,3.984,3.984,0,0,0,.862-2.7A4.84,4.84,0,0,0,127.8,139a4.294,4.294,0,0,0-1.69-1.637,7.248,7.248,0,0,0-2.306-.757,33.947,33.947,0,0,0-4.726-.211H113.6v19.994h5.65a36.747,36.747,0,0,0,4.91-.229,8,8,0,0,0,2.517-.783A4.62,4.62,0,0,0,128.6,153.5a5.733,5.733,0,0,0,.678-2.825A5.121,5.121,0,0,0,128.085,147.11Zm-9.416-6.283h1.17a5.494,5.494,0,0,1,2.728.458,1.752,1.752,0,0,1,.7,1.584,1.624,1.624,0,0,1-.748,1.531,5.885,5.885,0,0,1-2.763.44h-1.082Zm4.646,11.466a5.609,5.609,0,0,1-2.737.484h-1.91v-4.356h1.989a5.176,5.176,0,0,1,2.719.5,1.987,1.987,0,0,1,.739,1.76,1.641,1.641,0,0,1-.81,1.619Z" transform="translate(840.397 1037.603)"/><path class="b" d="M331.334,306.1a2.534,2.534,0,1,0,2.534,2.534A2.534,2.534,0,0,0,331.334,306.1Z" transform="translate(644.134 882.837)"/><rect class="b" width="4.4" height="13.334" transform="translate(973.269 1174.003)"/></g></svg>