<svg xmlns="http://www.w3.org/2000/svg" viewBox="0 0 44 44"><defs><style>.a{fill:#1da1f2;}.b{fill:#fff;}</style></defs><g transform="translate(-835 -1162)"><rect class="a" width="44" height="44" rx="2.4" transform="translate(835 1162)"/><g transform="translate(843.261 1172.824)"><path class="b" d="M83.735,120.752c10.373,0,16.049-8.6,16.049-16.049,0-.242,0-.484-.011-.726a11.491,11.491,0,0,0,2.816-2.926,11.432,11.432,0,0,1-3.245.891,5.675,5.675,0,0,0,2.486-3.124,11.22,11.22,0,0,1-3.586,1.364,5.642,5.642,0,0,0-9.757,3.861,6.235,6.235,0,0,0,.143,1.287A16.017,16.017,0,0,1,77,99.434a5.663,5.663,0,0,0,1.749,7.535,5.705,5.705,0,0,1-2.552-.7v.077a5.652,5.652,0,0,0,4.521,5.533,5.673,5.673,0,0,1-2.541.1,5.64,5.64,0,0,0,5.269,3.916,11.313,11.313,0,0,1-7.007,2.42,10.855,10.855,0,0,1-1.342-.077,16.045,16.045,0,0,0,8.635,2.519" transform="translate(-75.1 -98.4)"/></g></g></svg>