<svg xmlns="http://www.w3.org/2000/svg" viewBox="0 0 44 44"><defs><style>.a{fill:#3c5a99;}.b{fill:#fff;}</style></defs><g transform="translate(-890 -1162)"><path class="a" d="M41.577,44A2.427,2.427,0,0,0,44,41.577V2.423A2.427,2.427,0,0,0,41.577,0H2.423A2.427,2.427,0,0,0,0,2.423V41.56a2.427,2.427,0,0,0,2.423,2.423H41.577Z" transform="translate(890 1162)"/><path class="b" d="M120.395,77.656V60.61h5.72l.857-6.644h-6.578V49.73c0-1.929.528-3.231,3.3-3.231H127.2V40.564a46.611,46.611,0,0,0-5.127-.264c-5.078,0-8.54,3.1-8.54,8.77v4.9H107.8V60.61h5.737V77.656Z" transform="translate(799.971 1128.344)"/></g></svg>