<svg xmlns="http://www.w3.org/2000/svg" viewBox="-1214 5808 60 60"><defs><style>.a{fill:#1da1f2;}.b{fill:#fff;}.c{fill:none;}</style></defs><g transform="translate(-1214 5808)"><rect class="a" width="60" height="60"/><path class="b" d="M86.793,128.921c14.151,0,21.891-11.724,21.891-21.891,0-.333,0-.664-.023-.994a15.654,15.654,0,0,0,3.838-3.983,15.357,15.357,0,0,1-4.419,1.211,7.72,7.72,0,0,0,3.382-4.256,15.419,15.419,0,0,1-4.885,1.868,7.7,7.7,0,0,0-13.112,7.017A21.843,21.843,0,0,1,77.61,99.854a7.7,7.7,0,0,0,2.382,10.271,7.637,7.637,0,0,1-3.492-.963v.1a7.7,7.7,0,0,0,6.173,7.542,7.682,7.682,0,0,1-3.474.132,7.7,7.7,0,0,0,7.188,5.343,15.438,15.438,0,0,1-9.555,3.3A15.665,15.665,0,0,1,75,125.465a21.781,21.781,0,0,0,11.793,3.45" transform="translate(-63.75 -83.683)"/><rect class="c" width="60" height="60"/></g></svg>