<svg xmlns="http://www.w3.org/2000/svg" viewBox="-1297 8389.801 234.921 42.217"><defs><style>.a{fill:#fff;}</style></defs><g transform="translate(-1297 8389.801)"><path class="a" d="M38.1,21.29A10.644,10.644,0,1,0,28.227,6.666L24.373,0,17.061,12.674l7.312,12.674L34.2,8.47h9.749L24.373,42.214,12.187,21.107,0,42.217H48.746L36.6,21.183a10.724,10.724,0,0,0,1.5.107Z"/><path class="a" d="M331.553,87.943h-3.961V86.612c-.665,1.077-1.521,1.616-3.612,1.616-3.2,0-5.83-1.584-5.83-6.242V72.1h4.056v9.284c0,2.5.887,3.359,2.566,3.359,1.869,0,2.757-1.141,2.757-3.327V72.1h4.024Z" transform="translate(-240.607 -54.527)"/><path class="a" d="M482.43,47.4v3.771h-9.194v5.418h8.238v3.739h-8.238v8.935H468.8V47.4Z" transform="translate(-354.539 -35.847)"/><path class="a" d="M592.044,75.736a3.431,3.431,0,0,0-3.105-1.267c-1.046,0-2,.317-2,1.236s.855,1.3,2.535,1.553c3.9.6,5.862,2.091,5.862,5.228,0,3.042-2.123,4.911-6.21,4.911-3.232,0-5.2-.792-6.559-2.63l3.105-2.218c.634.855,1.426,1.362,3.39,1.362,1.394,0,2.25-.475,2.25-1.3,0-.975-.7-1.3-2.693-1.616-3.3-.539-5.7-1.933-5.7-5.121,0-3.01,2.155-4.875,6.115-4.875,2.6,0,4.753.6,5.989,2.63Z" transform="translate(-440.579 -53.695)"/><path class="a" d="M664.106,64.225a3.639,3.639,0,0,0,2.978,1.584c2.123,0,3.264-1.141,3.264-4.943V47.4h4.436V60.866c0,6.305-2.82,8.682-7.414,8.682a7.945,7.945,0,0,1-6.939-3.264Z" transform="translate(-499.462 -35.847)"/><path class="a" d="M249.525,62.095l0,.007-4.784-14.7H239.89l7.636,21.863h4.024l.158-.451Z" transform="translate(-181.421 -35.847)"/><path class="a" d="M284.788,66.528,291.44,47.4h-4.848L282.58,59.73Z" transform="translate(-213.706 -35.847)"/><path class="a" d="M392.044,78.344c0-4.816-2.06-7.414-6.527-7.414-4.119,0-6.527,2.313-6.527,7.1v2.155c0,4.087,2.281,7.161,7.034,7.161,2.852,0,4.689-.76,5.8-2.693l-3.01-2.091a2.826,2.826,0,0,1-2.82,1.362c-2.25,0-2.947-1.584-2.978-3.771h0V77.267h0c.158-1.806.919-2.925,2.535-2.925,1.521,0,2.345.855,2.437,2.925h-3.51V80.15h7.556Z" transform="translate(-286.618 -53.642)"/><path class="a" d="M539.854,78.344c0-4.816-2.06-7.414-6.527-7.414-4.119,0-6.527,2.313-6.527,7.1v2.155c0,4.087,2.281,7.161,7.034,7.161,2.852,0,4.689-.76,5.8-2.693l-3.01-2.091a2.826,2.826,0,0,1-2.82,1.362c-2.25,0-2.947-1.584-2.978-3.771h0V77.267h0c.158-1.806.919-2.925,2.535-2.925,1.521,0,2.345.855,2.437,2.925h-3.512V80.15h7.57Z" transform="translate(-398.402 -53.642)"/><path class="a" d="M732.9,70.93c-3.264,0-5.038.7-6.21,2.63l2.852,2c.665-1.046,1.426-1.267,2.978-1.267,2.281,0,2.82.57,2.82,2.345v.919h0v2.978h0v.6c0,2.155-.887,2.947-2.725,2.947-1.394,0-2.313-.57-2.313-1.774s.731-1.774,2.376-1.774h1.2V77.552H732.2c-3.327,0-5.862,1.462-5.862,4.816,0,3.232,2.281,4.975,5.577,4.975,1.838,0,2.788-.6,3.412-1.679v1.394h3.961V76.665C739.3,72.134,736.981,70.93,732.9,70.93Z" transform="translate(-549.308 -53.642)"/><path class="a" d="M912.916,73.431h0V72.1H908.86V87.943h4.056V73.431Z" transform="translate(-687.342 -54.527)"/><path class="a" d="M933.586,70.929a4.807,4.807,0,0,0-2.086.448V74.69a3.013,3.013,0,0,1,1.326-.275c1.648,0,2.535.887,2.535,3.359v9.284h4.024V77.139C939.385,72.45,936.787,70.929,933.586,70.929Z" transform="translate(-704.464 -53.641)"/><path class="a" d="M795.143,70.93a4.484,4.484,0,0,0-3.517,1.331V71.215H787.57V93.078h4.056V86.424h0V77.932c0-2.313.887-3.58,2.82-3.58,2,0,2.788,1.394,2.788,3.929v1.648c0,2.281-.6,3.992-2.788,3.992a3,3,0,0,1-1.358-.283v3.485a8.193,8.193,0,0,0,2.023.219c4.087,0,6.179-3.042,6.179-7.161V78.027C801.29,73.5,798.818,70.93,795.143,70.93Z" transform="translate(-595.614 -53.642)"/><path class="a" d="M854.189,70.93c-3.264,0-5.038.7-6.21,2.63l2.852,2c.665-1.046,1.426-1.267,2.978-1.267,2.281,0,2.82.57,2.82,2.345v.919h0v2.978h0v.6c0,2.155-.887,2.947-2.725,2.947-1.394,0-2.313-.57-2.313-1.774s.731-1.774,2.376-1.774h1.2V77.552h-1.674c-3.327,0-5.862,1.462-5.862,4.816,0,3.232,2.281,4.975,5.577,4.975,1.838,0,2.788-.6,3.412-1.679v1.394h3.97V76.665C860.589,72.134,858.276,70.93,854.189,70.93Z" transform="translate(-641.036 -53.642)"/></g></svg>